<mxfile host="app.diagrams.net" modified="2023-08-21T17:41:18.223Z" agent="Mozilla/5.0 (Windows NT 10.0; Win64; x64) AppleWebKit/537.36 (KHTML, like Gecko) Chrome/115.0.0.0 Safari/537.36 Edg/115.0.1901.203" etag="9XQJCluA-AsTjsbS1iCd" version="21.6.8" type="device">
  <diagram name="Page-1" id="hmsFM0hN7dfMMpRHbVr-">
    <mxGraphModel dx="276" dy="147" grid="1" gridSize="10" guides="1" tooltips="1" connect="1" arrows="1" fold="1" page="1" pageScale="1" pageWidth="827" pageHeight="1169" math="0" shadow="0">
      <root>
        <mxCell id="0" />
        <mxCell id="1" parent="0" />
        <mxCell id="9rDGt2Pl-7aIeRDOpwq_-1" value="" style="endArrow=none;html=1;rounded=0;" edge="1" parent="1">
          <mxGeometry width="50" height="50" relative="1" as="geometry">
            <mxPoint x="300" y="420" as="sourcePoint" />
            <mxPoint x="580" y="420" as="targetPoint" />
          </mxGeometry>
        </mxCell>
        <mxCell id="9rDGt2Pl-7aIeRDOpwq_-2" value="&lt;b&gt;&lt;font style=&quot;font-size: 18px;&quot;&gt;Hardware&lt;/font&gt;&lt;/b&gt;" style="text;html=1;align=center;verticalAlign=middle;resizable=0;points=[];autosize=1;strokeColor=none;fillColor=none;" vertex="1" parent="1">
          <mxGeometry x="359" y="420" width="110" height="40" as="geometry" />
        </mxCell>
        <mxCell id="9rDGt2Pl-7aIeRDOpwq_-14" style="edgeStyle=orthogonalEdgeStyle;rounded=0;orthogonalLoop=1;jettySize=auto;html=1;entryX=0.043;entryY=0.928;entryDx=0;entryDy=0;entryPerimeter=0;" edge="1" parent="1" source="9rDGt2Pl-7aIeRDOpwq_-4" target="9rDGt2Pl-7aIeRDOpwq_-5">
          <mxGeometry relative="1" as="geometry">
            <Array as="points" />
          </mxGeometry>
        </mxCell>
        <mxCell id="9rDGt2Pl-7aIeRDOpwq_-4" value="&lt;font style=&quot;font-size: 14px;&quot;&gt;&lt;b&gt;Drivers&lt;/b&gt;&lt;/font&gt;" style="rounded=0;whiteSpace=wrap;html=1;" vertex="1" parent="1">
          <mxGeometry x="369" y="380" width="90" height="40" as="geometry" />
        </mxCell>
        <mxCell id="9rDGt2Pl-7aIeRDOpwq_-5" value="&lt;font style=&quot;font-size: 12px;&quot;&gt;&lt;b&gt;L&lt;br&gt;i&lt;br&gt;b&lt;br&gt;r&lt;br&gt;a&lt;br&gt;r&lt;br&gt;i&lt;br&gt;e&lt;br&gt;s&lt;/b&gt;&lt;/font&gt;" style="rounded=0;whiteSpace=wrap;html=1;" vertex="1" parent="1">
          <mxGeometry x="510" y="270" width="40" height="140" as="geometry" />
        </mxCell>
        <mxCell id="9rDGt2Pl-7aIeRDOpwq_-6" value="&lt;font style=&quot;font-size: 14px;&quot;&gt;&lt;b&gt;Application modules&lt;/b&gt;&lt;/font&gt;" style="rounded=0;whiteSpace=wrap;html=1;" vertex="1" parent="1">
          <mxGeometry x="324" y="330" width="186" height="50" as="geometry" />
        </mxCell>
        <mxCell id="9rDGt2Pl-7aIeRDOpwq_-7" value="&lt;font style=&quot;font-size: 14px;&quot;&gt;&lt;b&gt;Task 1&lt;/b&gt;&lt;/font&gt;" style="rounded=0;whiteSpace=wrap;html=1;" vertex="1" parent="1">
          <mxGeometry x="324" y="270" width="66" height="60" as="geometry" />
        </mxCell>
        <mxCell id="9rDGt2Pl-7aIeRDOpwq_-8" value="&lt;font style=&quot;font-size: 14px;&quot;&gt;&lt;b&gt;Task n&lt;/b&gt;&lt;/font&gt;" style="rounded=0;whiteSpace=wrap;html=1;fillStyle=auto;" vertex="1" parent="1">
          <mxGeometry x="444" y="270" width="66" height="60" as="geometry" />
        </mxCell>
        <mxCell id="9rDGt2Pl-7aIeRDOpwq_-9" value="&lt;font style=&quot;font-size: 14px;&quot;&gt;&lt;b&gt;...&lt;/b&gt;&lt;/font&gt;" style="rounded=0;whiteSpace=wrap;html=1;" vertex="1" parent="1">
          <mxGeometry x="390" y="270" width="54" height="60" as="geometry" />
        </mxCell>
        <mxCell id="9rDGt2Pl-7aIeRDOpwq_-10" value="" style="endArrow=none;html=1;rounded=0;" edge="1" parent="1">
          <mxGeometry width="50" height="50" relative="1" as="geometry">
            <mxPoint x="302" y="269.6" as="sourcePoint" />
            <mxPoint x="580" y="270" as="targetPoint" />
            <Array as="points">
              <mxPoint x="412" y="269.6" />
            </Array>
          </mxGeometry>
        </mxCell>
        <mxCell id="9rDGt2Pl-7aIeRDOpwq_-11" value="&lt;b&gt;&lt;font style=&quot;font-size: 18px;&quot;&gt;Application&lt;br&gt;&lt;/font&gt;&lt;/b&gt;" style="text;html=1;align=center;verticalAlign=middle;resizable=0;points=[];autosize=1;strokeColor=none;fillColor=none;" vertex="1" parent="1">
          <mxGeometry x="356" y="229.6" width="120" height="40" as="geometry" />
        </mxCell>
        <mxCell id="9rDGt2Pl-7aIeRDOpwq_-12" value="" style="shape=flexArrow;endArrow=classic;html=1;rounded=0;endWidth=12.857142857142856;endSize=5.728571428571428;width=8.095238095238095;" edge="1" parent="1">
          <mxGeometry width="50" height="50" relative="1" as="geometry">
            <mxPoint x="570" y="380" as="sourcePoint" />
            <mxPoint x="570" y="320" as="targetPoint" />
          </mxGeometry>
        </mxCell>
      </root>
    </mxGraphModel>
  </diagram>
</mxfile>
